<svg width="135" height="35" viewBox="0 0 135 35" fill="none" xmlns="http://www.w3.org/2000/svg">
<text x="40" y="27" font-family="'Outfit', sans-serif" font-weight="800" font-size="32" fill="white" letter-spacing="-0.5">Aura.</text>
<path d="M13.2666 11.9468L1.70898 17.663L22.418 11.8739C26.5649 10.1845 29.7033 8.92342 29.7033 8.92239C27.7531 9.25924 20.1679 10.6652 13.2666 11.9468Z" fill="url(#paint0_linear_2086_924)"/>
<path d="M3.29834 24.1329C3.29834 24.1329 3.94533 26.7671 4.46395 28.8827C4.46872 28.8819 4.47357 28.8819 4.47833 28.8827C4.67685 29.5302 5.10441 30.0832 5.68109 30.4384C6.25776 30.7935 6.94406 30.9265 7.61164 30.8124C7.61883 30.8247 33.9998 24.4071 33.9998 24.4071L32.6483 18.8892L3.29834 24.1329Z" fill="url(#paint1_radial_2086_924)"/>
<path d="M20.9792 27.5682L20.8929 27.6195L20.6875 31.8989C20.6875 31.8989 32.9722 24.9258 33.9355 24.4184C33.2361 24.5889 27.1338 26.0729 20.9792 27.5682Z" fill="url(#paint2_linear_2086_924)"/>
<path d="M1.70898 17.663L3.09951 23.3298C3.09951 23.3298 32.0068 16.2837 32.0222 16.3464C32.0376 16.409 30.3791 9.64536 30.3791 9.64536L1.70898 17.663Z" fill="url(#paint3_linear_2086_924)"/>
<path d="M3.29639 24.134L24.486 20.3465C28.75 18.0748 32.0168 16.3413 32.0219 16.3505C32.0106 16.3033 17.5334 19.8176 9.06902 21.8756L3.29639 24.134Z" fill="url(#paint4_linear_2086_924)"/>
<path opacity="0.4" d="M20.8115 27.6103C27.5896 25.9589 33.9979 24.403 33.9979 24.403L32.6484 18.8892L26.3685 20.0106C25.0909 23.2723 23.1448 25.9137 20.8115 27.6103Z" fill="#37C4EE"/>
<path d="M27.1821 17.4925C30.0669 16.7993 32.0192 16.3372 32.0223 16.3546C32.0397 16.4234 30.3791 9.65359 30.3791 9.65359L27.9708 10.3263C28.3159 12.2919 28.1834 15.1099 27.1821 17.4925Z" fill="#F9C02E"/>
<path d="M28.9339 3.81214C28.5375 2.43497 27.376 1.46653 25.7503 1.86089L20.3967 3.17952C20.575 3.53003 20.7228 3.89528 20.8383 4.2712C20.937 4.37459 21.0077 4.5015 21.0437 4.63988C21.0717 4.75283 21.0771 4.87019 21.0598 4.98525C21.0424 5.10031 21.0025 5.21082 20.9424 5.31047C20.8824 5.41013 20.8032 5.49698 20.7096 5.56605C20.616 5.63513 20.5096 5.68509 20.3967 5.71307C20.2837 5.74106 20.1664 5.74652 20.0513 5.72915C19.9363 5.71178 19.8257 5.67192 19.7261 5.61184C19.6264 5.55176 19.5396 5.47264 19.4705 5.379C19.4014 5.28536 19.3515 5.17903 19.3235 5.06608C19.282 4.89517 19.2953 4.71552 19.3615 4.55259C19.4087 4.69226 19.4519 4.83398 19.4878 4.97981L20.6329 4.69637C20.2004 3.09429 19.1581 1.72508 17.729 0.881649C16.2999 0.0382185 14.5975 -0.212455 12.9859 0.183256C11.3743 0.578967 9.98163 1.58964 9.1057 2.99906C8.22978 4.40848 7.9402 6.10472 8.29891 7.72492L9.27248 7.48563C9.27248 7.49898 9.27248 7.51336 9.28172 7.52671H9.27351C9.31308 7.68021 9.31076 7.84152 9.26678 7.99382C9.22281 8.14612 9.13879 8.28383 9.02348 8.39262C8.90818 8.5014 8.76581 8.57726 8.61121 8.61231C8.45662 8.64735 8.29545 8.64029 8.14451 8.59186C7.99357 8.54343 7.85838 8.4554 7.75303 8.33695C7.64769 8.2185 7.57604 8.07396 7.54555 7.9184C7.51507 7.76284 7.52686 7.60195 7.57971 7.4525C7.63255 7.30304 7.72451 7.1705 7.84601 7.06868C7.81468 6.80349 7.79856 6.53673 7.79774 6.26969L2.10521 7.66638C2.10521 7.66638 2.10521 7.66638 2.10521 7.67254H2.09802C1.39779 7.84478 0.792941 8.28457 0.413192 8.89758C0.033444 9.51059 -0.0909583 10.248 0.0666663 10.9517H0.0605047L0.872843 14.2616C0.872843 14.2616 30.1653 8.78168 30.1838 8.84843L28.9463 3.807L28.9339 3.81214ZM13.289 1.22313C14.3494 0.963237 15.4651 1.0486 16.4736 1.46679C17.4822 1.88499 18.3309 2.61418 18.8963 3.54821L9.39469 5.87944C9.46338 4.78978 9.87816 3.7505 10.5786 2.91298C11.2791 2.07545 12.2286 1.48343 13.289 1.22313Z" fill="url(#paint5_radial_2086_924)"/>
<defs>
<linearGradient id="paint0_linear_2086_924" x1="16.5334" y1="17.655" x2="14.6038" y2="7.44938" gradientUnits="userSpaceOnUse">
<stop offset="0.46" stop-color="#F1634C"/>
<stop offset="0.49" stop-color="#E8574E"/>
<stop offset="0.55" stop-color="#D03652"/>
<stop offset="0.59" stop-color="#BE1E55"/>
</linearGradient>
<radialGradient id="paint1_radial_2086_924" cx="0" cy="0" r="1" gradientUnits="userSpaceOnUse" gradientTransform="translate(18.6502 24.2605) rotate(-13.79) scale(10.8551 10.8551)">
<stop stop-color="#20C1E9"/>
<stop offset="1" stop-color="#0CAEC7"/>
</radialGradient>
<linearGradient id="paint2_linear_2086_924" x1="27.5045" y1="28.9387" x2="26.5412" y2="25.014" gradientUnits="userSpaceOnUse">
<stop offset="0.3" stop-color="#018EA2"/>
<stop offset="0.41" stop-color="#018A9E"/>
<stop offset="0.53" stop-color="#038091"/>
<stop offset="0.63" stop-color="#047280"/>
</linearGradient>
<linearGradient id="paint3_linear_2086_924" x1="27.0763" y1="14.0057" x2="5.56788" y2="19.2847" gradientUnits="userSpaceOnUse">
<stop stop-color="#FDD309"/>
<stop offset="1" stop-color="#F79420"/>
</linearGradient>
<linearGradient id="paint4_linear_2086_924" x1="18.2257" y1="22.7976" x2="17.5216" y2="19.6014" gradientUnits="userSpaceOnUse">
<stop offset="0.33" stop-color="#FFDD0F"/>
<stop offset="0.45" stop-color="#FDD910"/>
<stop offset="0.56" stop-color="#F8CC13"/>
<stop offset="0.69" stop-color="#EFB618"/>
<stop offset="0.81" stop-color="#E3991F"/>
<stop offset="0.94" stop-color="#D37328"/>
</linearGradient>
<radialGradient id="paint5_radial_2086_924" cx="0" cy="0" r="1" gradientUnits="userSpaceOnUse" gradientTransform="translate(14.2255 6.24045) rotate(-13.79) scale(11.4313 11.4313)">
<stop stop-color="#ED3B87"/>
<stop offset="1" stop-color="#DB377D"/>
</radialGradient>
</defs>
</svg>
